<svg width="97pt" height="229pt"
 viewBox="0.00 0.00 97.00 229.25" xmlns="http://www.w3.org/2000/svg" xmlns:xlink="http://www.w3.org/1999/xlink">
<g id="graph0" class="graph" transform="scale(1 1) rotate(0) translate(4 225.25)">
<polygon fill="white" stroke="none" points="-4,4 -4,-225.25 93,-225.25 93,4 -4,4"/>
<g id="clust1" class="cluster">
<polygon fill="none" stroke="black" points="29,-136 29,-213.25 81,-213.25 81,-136 29,-136"/>
<text text-anchor="middle" x="55" y="-195.95" font-family="Times,serif" font-size="14.00">box</text>
</g>
<g id="node1" class="node">
<ellipse fill="lavender" stroke="black" cx="27" cy="-90" rx="27" ry="18"/>
<text text-anchor="middle" x="27" y="-85.33" font-family="Times,serif" font-size="14.00">a</text>
</g>
<g id="node2" class="node">
<ellipse fill="lavender" stroke="black" cx="54" cy="-18" rx="27" ry="18"/>
<text text-anchor="middle" x="54" y="-13.32" font-family="Times,serif" font-size="14.00">b</text>
</g>
<g id="edge1" class="edge">
<path fill="none" stroke="black" stroke-dasharray="1,5" d="M33.54,-72.05C36.52,-64.32 40.13,-54.96 43.48,-46.27"/>
<polygon fill="black" stroke="black" points="46.65,-47.79 46.98,-37.2 40.12,-45.27 46.65,-47.79"/>
</g>
<g id="node3" class="node">
<ellipse fill="cornflowerblue" stroke="black" cx="55" cy="-162" rx="18" ry="18"/>
<text text-anchor="middle" x="55" y="-157.32" font-family="Times,serif" font-size="14.00">c</text>
</g>
<g id="edge2" class="edge">
<path fill="none" stroke="black" d="M48.51,-144.76C45.34,-136.84 41.44,-127.09 37.83,-118.08"/>
<polygon fill="black" stroke="black" points="41.18,-117.02 34.22,-109.04 34.68,-119.62 41.18,-117.02"/>
</g>
<g id="edge3" class="edge">
<path fill="none" stroke="black" d="M58.25,-143.89C60.05,-133.54 62.09,-120.06 63,-108 64.2,-92.04 64.34,-87.94 63,-72 62.32,-63.97 61.08,-55.33 59.73,-47.4"/>
<polygon fill="black" stroke="black" points="63.17,-46.79 57.93,-37.58 56.29,-48.05 63.17,-46.79"/>
</g>
</g>
</svg>
